<svg width="70" height="70" viewBox="0 0 70 70" fill="none" xmlns="http://www.w3.org/2000/svg">
<circle cx="35" cy="35" r="34.5" stroke="#9BBBB8"/>
<circle cx="35" cy="35" r="10.25" stroke="#1D1D1D" stroke-width="1.5"/>
<path d="M35 21.3144C35.2303 21.3144 35.4513 21.2227 35.6141 21.0595C35.777 20.8963 35.8685 20.6749 35.8685 20.4441V14.8561C35.8648 14.6277 35.7716 14.41 35.6091 14.2499C35.4466 14.0897 35.2278 14 34.9999 14C34.772 14 34.5532 14.0897 34.3907 14.2499C34.2282 14.41 34.135 14.6277 34.1312 14.8561V20.4441C34.1312 20.5584 34.1537 20.6716 34.1974 20.7772C34.241 20.8828 34.305 20.9788 34.3857 21.0596C34.4664 21.1404 34.5621 21.2045 34.6676 21.2482C34.773 21.2919 34.8859 21.3144 35 21.3144Z" fill="#1D1D1D"/>
<path d="M25.7571 23.7361C25.894 23.9186 26.0972 24.04 26.3226 24.0739C26.548 24.1077 26.7777 24.0515 26.9622 23.9172C27.1466 23.783 27.2709 23.5815 27.3084 23.3561C27.3459 23.1308 27.2935 22.8998 27.1625 22.7129L23.8845 18.1924C23.7491 18.0057 23.5453 17.8805 23.3177 17.8443C23.0902 17.8082 22.8577 17.8641 22.6713 17.9998C22.4849 18.1354 22.36 18.3397 22.3239 18.5677C22.2879 18.7957 22.3437 19.0287 22.479 19.2154L25.7571 23.7361Z" fill="#1D1D1D"/>
<path d="M21.4496 29.6758L16.1464 27.9489C15.928 27.8805 15.6916 27.901 15.4883 28.0062C15.285 28.1114 15.1314 28.2926 15.0607 28.5106C14.99 28.7286 15.0079 28.9658 15.1107 29.1706C15.2134 29.3754 15.3926 29.5313 15.6094 29.6045L20.9134 31.3312C21.0222 31.3677 21.1371 31.3822 21.2516 31.374C21.366 31.3657 21.4777 31.3348 21.5801 31.2831C21.6826 31.2313 21.7738 31.1597 21.8485 31.0725C21.9231 30.9852 21.9798 30.884 22.0153 30.7746C22.0507 30.6653 22.0641 30.55 22.0548 30.4354C22.0455 30.3208 22.0137 30.2092 21.9611 30.1071C21.9085 30.0049 21.8362 29.9142 21.7484 29.8401C21.6606 29.7661 21.5591 29.7102 21.4496 29.6758Z" fill="#1D1D1D"/>
<path d="M20.9133 38.673L15.6093 40.3996C15.4997 40.4339 15.3979 40.4898 15.31 40.5638C15.222 40.6379 15.1496 40.7286 15.0968 40.8309C15.0441 40.9332 15.0122 41.0449 15.0029 41.1597C14.9935 41.2744 15.007 41.3898 15.0425 41.4993C15.078 41.6088 15.1349 41.7101 15.2097 41.7975C15.2846 41.8848 15.376 41.9564 15.4786 42.0081C15.5813 42.0597 15.6931 42.0905 15.8077 42.0986C15.9223 42.1067 16.0374 42.0919 16.1463 42.0552L21.4495 40.3283C21.6686 40.257 21.8504 40.1014 21.955 39.8957C22.0596 39.69 22.0783 39.4512 22.0071 39.2317C21.9359 39.0122 21.7806 38.83 21.5753 38.7252C21.3701 38.6204 21.1317 38.6016 20.9126 38.673H20.9133Z" fill="#1D1D1D"/>
<path d="M26.9703 46.0755C26.878 46.0083 26.7734 45.96 26.6625 45.9333C26.5516 45.9067 26.4365 45.9021 26.3239 45.92C26.2112 45.9379 26.1032 45.9779 26.0059 46.0376C25.9087 46.0973 25.8241 46.1757 25.7571 46.2681L22.4791 50.7888C22.3481 50.9757 22.2957 51.2068 22.3332 51.4321C22.3707 51.6574 22.495 51.8589 22.6794 51.9932C22.8639 52.1274 23.0936 52.1837 23.319 52.1498C23.5444 52.1159 23.7476 51.9946 23.8845 51.812L27.1626 47.2913C27.2979 47.1045 27.3537 46.8715 27.3176 46.6435C27.2816 46.4155 27.1567 46.2112 26.9703 46.0755Z" fill="#1D1D1D"/>
<path d="M35.0002 48.6903C34.8862 48.6903 34.7732 48.7128 34.6678 48.7565C34.5624 48.8002 34.4666 48.8643 34.3859 48.9451C34.3053 49.0259 34.2413 49.1219 34.1976 49.2275C34.1539 49.3331 34.1315 49.4463 34.1315 49.5606V55.1485C34.1296 55.264 34.1506 55.3788 34.1934 55.486C34.2362 55.5933 34.2999 55.691 34.3807 55.7733C34.4616 55.8557 34.558 55.9211 34.6643 55.9658C34.7707 56.0104 34.8848 56.0334 35.0001 56.0334C35.1154 56.0334 35.2296 56.0104 35.3359 55.9658C35.4422 55.9211 35.5386 55.8557 35.6195 55.7733C35.7003 55.691 35.764 55.5933 35.8068 55.486C35.8496 55.3788 35.8707 55.264 35.8688 55.1485V49.5601C35.8686 49.3294 35.7771 49.1081 35.6142 48.945C35.4513 48.7819 35.2305 48.6903 35.0002 48.6903Z" fill="#1D1D1D"/>
<path d="M44.243 46.2682C44.1768 46.1736 44.0924 46.0932 43.9949 46.0317C43.8973 45.9701 43.7885 45.9287 43.6748 45.9097C43.5611 45.8907 43.4448 45.8946 43.3326 45.9211C43.2204 45.9476 43.1146 45.9962 43.0213 46.0641C42.9281 46.132 42.8492 46.2178 42.7894 46.3165C42.7296 46.4153 42.6899 46.5249 42.6728 46.6392C42.6557 46.7534 42.6615 46.8699 42.6898 46.9818C42.718 47.0938 42.7683 47.199 42.8375 47.2914L46.1148 51.8121C46.1819 51.9046 46.2665 51.9831 46.3638 52.0429C46.4611 52.1028 46.5692 52.1428 46.682 52.1608C46.7947 52.1787 46.9099 52.1743 47.021 52.1476C47.132 52.121 47.2367 52.0727 47.3291 52.0055C47.4215 51.9383 47.4998 51.8536 47.5595 51.7561C47.6193 51.6586 47.6592 51.5502 47.6772 51.4373C47.6951 51.3243 47.6906 51.2089 47.664 51.0976C47.6375 50.9864 47.5893 50.8814 47.5222 50.7888L44.243 46.2682Z" fill="#1D1D1D"/>
<path d="M54.3906 40.3996L49.0866 38.673C48.9782 38.6377 48.8638 38.6241 48.7501 38.633C48.6364 38.642 48.5255 38.6733 48.4239 38.7252C48.3223 38.7771 48.2318 38.8485 48.1577 38.9354C48.0836 39.0223 48.0274 39.123 47.9921 39.2317C47.9568 39.3404 47.9433 39.455 47.9522 39.5689C47.9612 39.6828 47.9924 39.7939 48.0442 39.8957C48.096 39.9976 48.1673 40.0882 48.254 40.1624C48.3407 40.2367 48.4412 40.2931 48.5497 40.3284L53.8536 42.0552C53.9625 42.092 54.0775 42.1068 54.1922 42.0987C54.3068 42.0906 54.4186 42.0598 54.5213 42.0081C54.6239 41.9564 54.7153 41.8848 54.7902 41.7975C54.865 41.7102 54.9218 41.6089 54.9573 41.4994C54.9929 41.3899 55.0063 41.2745 54.997 41.1597C54.9877 41.045 54.9557 40.9333 54.903 40.831C54.8503 40.7287 54.7779 40.6379 54.6899 40.5639C54.602 40.4898 54.5002 40.434 54.3906 40.3996Z" fill="#1D1D1D"/>
<path d="M48.8181 31.374C48.9093 31.374 49 31.3596 49.0867 31.3312L54.3906 29.6046C54.5003 29.5702 54.602 29.5144 54.69 29.4403C54.778 29.3663 54.8504 29.2755 54.9031 29.1732C54.9558 29.0709 54.9878 28.9592 54.9971 28.8444C55.0064 28.7297 54.9929 28.6143 54.9574 28.5048C54.9219 28.3953 54.8651 28.294 54.7902 28.2066C54.7154 28.1193 54.624 28.0477 54.5213 27.996C54.4187 27.9443 54.3068 27.9136 54.1922 27.9055C54.0776 27.8974 53.9625 27.9122 53.8537 27.9489L48.5497 29.6758C48.354 29.7406 48.1877 29.873 48.0804 30.0494C47.9732 30.2257 47.932 30.4346 47.9643 30.6385C47.9965 30.8425 48.1001 31.0284 48.2565 31.1629C48.4129 31.2974 48.612 31.3718 48.8181 31.3728V31.374Z" fill="#1D1D1D"/>
<path d="M47.3285 17.9996C47.2362 17.9323 47.1316 17.8839 47.0206 17.8572C46.9096 17.8305 46.7944 17.826 46.6817 17.8439C46.5689 17.8618 46.4608 17.9018 46.3635 17.9616C46.2662 18.0214 46.1816 18.0999 46.1146 18.1925L42.8373 22.7129C42.7063 22.8998 42.6539 23.1309 42.6914 23.3562C42.7289 23.5815 42.8533 23.783 43.0377 23.9173C43.2221 24.0515 43.4518 24.1078 43.6773 24.0739C43.9027 24.04 44.1058 23.9187 44.2428 23.7361L47.522 19.2152C47.589 19.1227 47.6371 19.0178 47.6636 18.9066C47.6902 18.7954 47.6946 18.6801 47.6766 18.5672C47.6586 18.4543 47.6187 18.3461 47.5589 18.2487C47.4992 18.1513 47.4209 18.0667 47.3285 17.9996Z" fill="#1D1D1D"/>
</svg>
